<svg xmlns="http://www.w3.org/2000/svg" viewBox="0 0 196.08 56.00" role="img" aria-labelledby="title desc">
  <title id="title">SyncPlus</title>
  <desc id="desc">SyncPlus wordmark in copper for Dark Appearance</desc>
  <path d="M32.28 16.88C32.24 10.84 28.2 7.52 20.84 7.52C13.84 7.52 9.8 10.8 9.8 16.48C9.8 21 12.08 23.2 18 24.32L22.08 25.12C26.08 25.88 27.56 27 27.56 29.36C27.56 31.8 25.32 33.28 21.68 33.28C17.6 33.28 15.32 31.56 15.12 28.44H9.28C9.64 34.68 13.92 38.08 21.36 38.08C28.88 38.08 33.32 34.6 33.32 28.64C33.32 24.04 31 21.64 25.6 20.6L21.04 19.72C16.76 18.88 15.52 18.04 15.52 15.92C15.52 13.72 17.44 12.32 20.56 12.32C24.36 12.32 26.48 13.92 26.68 16.88Z M50.44 15.56 45.96 31.28 41.2 15.56H35.04L43.08 38.04C43.08 40.28 41.68 41.8 39.6 41.8C39.16 41.8 38.8 41.72 38.12 41.56V45.76C38.96 45.88 39.44 45.92 40.12 45.92C41.56 45.92 43.16 45.64 44.16 45.24C45.72 44.6 46.4 43.72 47.32 41.12L56.2 15.56Z M59.44 15.56V37.16H65.04V24.2C65.04 21.64 66.8 19.96 69.56 19.96C71.96 19.96 73.16 21.28 73.16 23.84V37.16H78.76V22.68C78.76 17.88 76.16 15.2 71.52 15.2C68.6 15.2 66.64 16.24 65.04 18.68V15.56Z M102.24 23.64C101.84 18.36 98.36 15.2 92.92 15.2C86.44 15.2 82.72 19.44 82.72 26.8C82.72 33.92 86.44 38.08 92.84 38.08C98.08 38.08 101.72 34.84 102.24 29.68H96.88C96.2 32.48 95.08 33.56 92.84 33.56C90 33.56 88.32 31.04 88.32 26.8C88.32 24.72 88.72 22.84 89.4 21.56C90.04 20.36 91.28 19.72 92.88 19.72C95.16 19.72 96.24 20.8 96.88 23.64Z M112.64 26.76H120.12C125.48 26.76 128.92 22.96 128.92 17.04C128.92 11.2 125.6 8 119.52 8H106.64V37.16H112.64ZM112.64 21.76V13H118.24C121.44 13 122.92 14.4 122.92 17.36C122.92 20.36 121.44 21.76 118.24 21.76Z M138.56 8H132.96V37.16H138.56Z M163.04 37.16V15.56H157.44V29.08C157.44 31.64 155.68 33.32 152.92 33.32C150.52 33.32 149.32 32.04 149.32 29.44V15.56H143.72V30.6C143.72 35.4 146.32 38.08 150.96 38.08C153.88 38.08 155.84 37.04 157.44 34.6V37.16Z M186.04 22.52C185.96 17.96 182.44 15.2 176.64 15.2C171.16 15.2 167.76 17.96 167.76 22.4C167.76 23.84 168.2 25.08 168.96 25.92C169.72 26.68 170.4 27.04 172.48 27.72L179.16 29.8C180.56 30.24 181.04 30.68 181.04 31.56C181.04 32.88 179.48 33.68 176.88 33.68C175.4 33.68 174.28 33.44 173.56 32.92C172.96 32.48 172.72 32.04 172.48 30.88H167C167.16 35.64 170.64 38.08 177.2 38.08C180.2 38.08 182.48 37.44 184.08 36.16C185.68 34.88 186.64 32.88 186.64 30.76C186.64 27.96 185.24 26.16 182.4 25.32L175.32 23.28C173.76 22.8 173.36 22.48 173.36 21.6C173.36 20.4 174.64 19.6 176.6 19.6C179.28 19.6 180.6 20.56 180.64 22.52Z" fill="#E08A3C"/>
</svg>
